PathFileType	4	(X/Y/Z)	C:\Users\WrightLab\Desktop\Jo\P2_Trial24.trc
DataRate	CameraRate	NumFrames	NumMarkers	Units	OrigDataRate	OrigDataStartFrame	OrigNumFrames
100.00	100.00	       11	19	mm	100.00	224	       597
Frame#	Time	Headset_Front			Headset_Back			Headset_Left			Headset_Right			Left_Shoulder			Right_Shoulder			Sternum			C7			Left Elbow			Right Elbow			Left Wrist			Right Wrist			Left ASIS			Right ASIS			S2			Left Knee			Right Knee			Left Ankle			Right Ankle			
		X1	Y1	Z1	X2	Y2	Z2	X3	Y3	Z3	X4	Y4	Z4	X5	Y5	Z5	X6	Y6	Z6	X7	Y7	Z7	X8	Y8	Z8	X9	Y9	Z9	X10	Y10	Z10	X11	Y11	Z11	X12	Y12	Z12	X13	Y13	Z13	X14	Y14	Z14	X15	Y15	Z15	X16	Y16	Z16	X17	Y17	Z17	X18	Y18	Z18	X19	Y19	Z19	

224	2.230	-601.13727	1441.91687	-431.86841	-637.12231	1652.07837	-660.59113				-716.23413	1527.91248	-486.07083	-502.14590	1405.95764	-651.23132	-832.08429	1396.59692	-665.80988	-671.87518	1288.00891	-590.44501	-677.52527	1397.42773	-772.29181	-389.38626	1056.89368	-619.97589	-929.35797	1071.11047	-740.89819	-365.80569	820.89453	-592.96625	-956.31219	815.17059	-732.85541	-621.65613	988.30267	-557.85553	-753.91486	967.69928	-577.08130	-626.77740	915.71149	-825.01794	-583.01172	431.80994	-554.52875	-836.24811	493.80829	-727.75342	-674.95850	84.82114	-528.85150				
225	2.240	-598.99353	1444.66907	-422.69330	-636.44446	1654.82153	-649.33130	-516.35425	1543.83179	-591.10242	-713.62689	1529.62488	-475.08734	-503.01770	1407.94543	-649.34290	-830.89276	1399.96277	-654.43695	-672.08954	1292.01917	-578.19843	-678.04657	1400.08850	-762.64380	-388.59839	1059.97058	-610.04419	-930.12360	1074.55298	-729.72369	-366.28476	825.01648	-580.31293	-957.04242	818.21576	-720.50726	-621.77643	991.49268	-548.14856	-753.44653	971.00549	-567.62439	-628.60803	918.68170	-814.56549	-579.93225	432.20602	-552.25037	-845.09387	497.94672	-695.93549	-672.38074	85.86134	-529.04291	-813.84973	239.97342	-897.32806	
226	2.250	-596.38861	1446.14966	-413.40762	-635.64172	1657.62573	-638.43915	-515.26965	1546.48523	-582.10382	-713.09619	1531.54504	-465.23199	-501.47058	1410.27600	-638.44849	-830.76709	1404.03735	-643.91376	-669.49933	1293.78857	-568.70410	-678.51868	1402.50098	-752.86200	-387.34607	1063.23535	-600.56122	-930.53174	1078.47693	-718.21777	-365.78494	830.49939	-565.89233	-958.70245	821.77240	-708.48224	-621.42004	995.37665	-538.13452	-753.70447	975.12823	-555.71515	-630.31439	921.61993	-803.68024	-576.09454	431.89502	-549.13904	-855.32513	504.29282	-665.22137	-670.22559	85.00771	-531.35083	-822.78625	242.56587	-865.05957	
227	2.260	-595.25940	1447.05103	-405.30936	-634.62756	1660.42224	-627.43750	-514.07898	1548.48682	-572.53888	-710.44238	1533.35071	-454.45767	-501.88989	1413.37402	-630.30548				-671.23468	1294.50891	-571.99750	-678.92694	1405.10156	-742.88458	-386.34985	1066.55371	-591.15686	-930.86890	1081.69727	-706.05847	-360.51874	839.87122	-535.83917	-960.75281	826.52045	-694.95074	-621.26880	998.45172	-528.39038	-752.80151	977.63373	-542.71887	-632.25635	924.52216	-793.68903	-571.47516	432.32294	-546.66644	-864.27594	509.87173	-634.32141	-668.73523	84.79250	-530.73810	-831.69446	243.95094	-831.91632	
228	2.270	-592.73065	1447.34424	-394.71860	-633.55615	1663.00488	-616.96832	-512.87390	1550.88037	-562.92291	-709.24713	1534.80347	-444.37369	-500.88785	1416.52454	-620.59570	-829.32166	1411.61609	-621.48029	-668.78973	1297.44519	-556.22516	-679.20422	1407.27380	-732.82996	-385.13077	1069.51147	-581.93121	-931.24957	1085.07361	-693.64240	-364.49078	839.20972	-538.86847	-962.32776	830.12134	-680.49835	-621.80255	1002.26453	-517.94769	-752.83508	981.67950	-532.41510	-634.32037	927.16376	-783.84839	-568.33417	431.33032	-545.52130	-872.92664	516.97852	-602.66205	-664.83051	84.51527	-531.69189	-840.47943	245.27710	-799.65204	
229	2.280	-590.41754	1448.42920	-384.20667	-632.36011	1665.45337	-606.43915	-511.55566	1552.92163	-553.32800	-708.01276	1536.88867	-433.65482	-500.06311	1418.40930	-612.93811	-828.79602	1414.43274	-610.37384	-669.11462	1299.09753	-551.12024	-679.29926	1409.60388	-722.79309	-384.06369	1072.86487	-573.13672	-931.86670	1088.62939	-680.65472	-362.99689	843.26349	-528.49323	-962.81500	832.69952	-667.55353	-620.82458	1005.20972	-505.97226	-753.41827	985.73706	-521.10693	-636.49774	929.28223	-773.33984	-563.79242	431.79202	-543.11237	-879.01837	526.63593	-575.52130	-662.36017	84.29922	-533.12555	-848.82355	245.85718	-766.48206	
230	2.290	-588.84723	1449.89380	-375.41489	-631.11731	1667.57288	-595.38062	-510.01904	1554.54333	-544.80902	-705.38934	1537.17664	-422.97464	-499.92825	1419.52661	-604.36774	-827.76111	1417.61499	-599.72034	-668.21582	1302.61658	-539.45172	-679.28900	1411.43738	-712.58105	-383.85364	1074.96313	-562.54327	-932.67169	1091.96252	-668.23547	-360.97577	846.61005	-517.71875	-964.90533	836.30914	-652.90839	-620.62933	1007.53046	-497.04419	-751.70856	987.79224	-509.70697	-638.75153	931.51068	-762.94550	-560.39130	431.18057	-542.79315	-883.51617	536.84637	-549.06104	-657.98218	84.18905	-534.85315	-858.16931	246.05577	-734.22528	
231	2.300	-587.87964	1450.31995	-366.10327	-629.64972	1669.68555	-583.97095	-508.55792	1555.98975	-533.93420	-702.68903	1538.18176	-412.29959	-498.82141	1422.85132	-595.18481	-826.29407	1419.96704	-588.12500	-666.27850	1304.26672	-532.10553	-679.03912	1413.46655	-702.69879	-382.05957	1077.09436	-552.12622	-933.29437	1094.97595	-654.93439	-360.25613	849.86346	-503.69904	-967.00183	840.54541	-638.76654	-620.39331	1010.20319	-487.96664	-752.09186	991.08038	-497.90494	-641.21588	933.29901	-752.84619	-556.43781	431.89557	-541.97388	-886.64246	546.74396	-522.66077	-654.00183	83.53814	-536.51434	-866.61517	243.02191	-701.91772	
232	2.310	-586.33191	1450.12671	-355.69812	-628.22632	1671.17126	-573.09882	-507.02399	1557.55835	-524.01251	-700.63855	1539.69507	-401.82401	-497.86804	1424.15759	-587.21277	-825.47070	1423.11694	-577.49609	-665.06165	1305.81519	-522.02344	-678.69098	1415.27234	-692.46002	-380.52594	1079.70642	-543.18365	-933.59381	1097.67188	-641.71063	-359.80511	852.24963	-494.67148	-968.71625	843.44330	-623.65198	-619.15826	1012.80945	-477.67563	-751.58154	994.23163	-487.16809	-643.63464	934.75647	-742.79614	-552.75897	431.00165	-542.29462	-887.64478	556.29834	-497.58167	-650.39099	83.14739	-537.10016	-875.17926	240.78441	-669.37378	
233	2.320	-584.67340	1452.04443	-346.22711	-626.68823	1672.53442	-562.56464	-505.39914	1559.24402	-514.62103	-699.50403	1540.43469	-391.97757	-496.63437	1425.52002	-577.95026	-824.30023	1425.29810	-566.28857	-664.09625	1307.95984	-509.56400	-678.29266	1416.75500	-682.42139	-379.50745	1081.11218	-533.04071	-934.07843	1100.40637	-628.59119	-358.03641	855.94244	-478.31711	-969.92578	846.59808	-609.27155	-619.23456	1013.52039	-468.73026	-751.37909	997.23438	-475.81342	-646.08331	936.29492	-732.62506	-549.59344	430.95761	-542.11926	-887.60645	565.85760	-474.93561	-646.37054	82.15713	-539.53772	-883.69562	237.77768	-635.36578	
234	2.330	-580.86420	1451.56885	-336.92230	-624.93585	1673.84851	-551.24994	-503.68497	1559.82947	-503.86697	-698.70209	1541.20386	-381.07974	-495.55710	1426.23657	-569.75366	-822.64435	1427.19958	-555.28369	-662.69128	1309.49927	-499.20926	-677.86749	1417.49292	-671.59351	-379.04312	1081.99719	-523.59778	-934.91241	1103.10913	-616.27515	-356.58609	856.72351	-469.36572	-971.26202	849.11005	-593.71417	-617.22992	1014.83606	-457.63608	-750.95721	998.52905	-464.94208	-648.65997	937.61713	-723.12256	-544.13690	431.02850	-542.89459	-886.57788	574.25000	-453.10068	-641.03979	81.26379	-540.05658	-891.57904	233.18997	-601.10547	
